<mxfile host="app.diagrams.net" modified="2024-05-03T11:15:44.716Z" agent="Mozilla/5.0 (Windows NT 10.0; Win64; x64) AppleWebKit/537.36 (KHTML, like Gecko) Chrome/124.0.0.0 Safari/537.36" etag="UXigE2i1jmToBQL_pFMn" version="24.3.1" type="github">
  <diagram id="R2lEEEUBdFMjLlhIrx00" name="Page-1">
    <mxGraphModel dx="1843" dy="1615" grid="1" gridSize="10" guides="1" tooltips="1" connect="1" arrows="1" fold="1" page="1" pageScale="1" pageWidth="850" pageHeight="1100" math="0" shadow="0" extFonts="Permanent Marker^https://fonts.googleapis.com/css?family=Permanent+Marker">
      <root>
        <mxCell id="0" />
        <mxCell id="1" parent="0" />
        <mxCell id="IhdsTtRUpXvqoFYhtNvG-1" value="student" style="rounded=0;whiteSpace=wrap;html=1;" vertex="1" parent="1">
          <mxGeometry x="55" y="312" width="120" height="60" as="geometry" />
        </mxCell>
        <mxCell id="IhdsTtRUpXvqoFYhtNvG-2" value="High School" style="rounded=0;whiteSpace=wrap;html=1;" vertex="1" parent="1">
          <mxGeometry x="420" y="114" width="120" height="60" as="geometry" />
        </mxCell>
        <mxCell id="IhdsTtRUpXvqoFYhtNvG-3" value="HighSchoolMarks" style="rounded=0;whiteSpace=wrap;html=1;" vertex="1" parent="1">
          <mxGeometry x="420" y="249.5" width="120" height="60" as="geometry" />
        </mxCell>
        <mxCell id="IhdsTtRUpXvqoFYhtNvG-4" value="FirstYearMarks" style="rounded=0;whiteSpace=wrap;html=1;" vertex="1" parent="1">
          <mxGeometry x="415" y="410" width="120" height="60" as="geometry" />
        </mxCell>
        <mxCell id="IhdsTtRUpXvqoFYhtNvG-5" value="SecondYearMarks" style="rounded=0;whiteSpace=wrap;html=1;" vertex="1" parent="1">
          <mxGeometry x="420" y="533" width="120" height="60" as="geometry" />
        </mxCell>
        <mxCell id="IhdsTtRUpXvqoFYhtNvG-7" value="Name" style="ellipse;whiteSpace=wrap;html=1;" vertex="1" parent="1">
          <mxGeometry y="220" width="90" height="40" as="geometry" />
        </mxCell>
        <mxCell id="IhdsTtRUpXvqoFYhtNvG-8" value="FirstName" style="ellipse;whiteSpace=wrap;html=1;" vertex="1" parent="1">
          <mxGeometry x="-160" y="152" width="90" height="40" as="geometry" />
        </mxCell>
        <mxCell id="IhdsTtRUpXvqoFYhtNvG-12" style="edgeStyle=orthogonalEdgeStyle;rounded=0;orthogonalLoop=1;jettySize=auto;html=1;exitX=0.5;exitY=1;exitDx=0;exitDy=0;endArrow=none;endFill=0;" edge="1" parent="1" source="IhdsTtRUpXvqoFYhtNvG-9" target="IhdsTtRUpXvqoFYhtNvG-7">
          <mxGeometry relative="1" as="geometry" />
        </mxCell>
        <mxCell id="IhdsTtRUpXvqoFYhtNvG-9" value="LastName" style="ellipse;whiteSpace=wrap;html=1;" vertex="1" parent="1">
          <mxGeometry x="-50" y="124.5" width="90" height="40" as="geometry" />
        </mxCell>
        <mxCell id="IhdsTtRUpXvqoFYhtNvG-13" style="edgeStyle=orthogonalEdgeStyle;rounded=0;orthogonalLoop=1;jettySize=auto;html=1;exitX=0.5;exitY=1;exitDx=0;exitDy=0;entryX=0.5;entryY=0;entryDx=0;entryDy=0;endArrow=none;endFill=0;" edge="1" parent="1" source="IhdsTtRUpXvqoFYhtNvG-8" target="IhdsTtRUpXvqoFYhtNvG-7">
          <mxGeometry relative="1" as="geometry">
            <Array as="points">
              <mxPoint x="-115" y="207" />
              <mxPoint x="5" y="207" />
            </Array>
          </mxGeometry>
        </mxCell>
        <mxCell id="IhdsTtRUpXvqoFYhtNvG-19" value="Date of Birth" style="ellipse;whiteSpace=wrap;html=1;dashed=1;" vertex="1" parent="1">
          <mxGeometry x="-140" y="350" width="90" height="40" as="geometry" />
        </mxCell>
        <mxCell id="IhdsTtRUpXvqoFYhtNvG-20" value="IDNo" style="ellipse;whiteSpace=wrap;html=1;" vertex="1" parent="1">
          <mxGeometry x="-120" y="300" width="90" height="40" as="geometry" />
        </mxCell>
        <mxCell id="IhdsTtRUpXvqoFYhtNvG-21" value="&lt;u&gt;StudentNo&lt;/u&gt;" style="ellipse;whiteSpace=wrap;html=1;" vertex="1" parent="1">
          <mxGeometry x="-90" y="250" width="90" height="40" as="geometry" />
        </mxCell>
        <mxCell id="IhdsTtRUpXvqoFYhtNvG-22" value="HighSchool" style="ellipse;whiteSpace=wrap;html=1;" vertex="1" parent="1">
          <mxGeometry x="-100" y="410" width="90" height="40" as="geometry" />
        </mxCell>
        <mxCell id="IhdsTtRUpXvqoFYhtNvG-24" value="" style="endArrow=none;html=1;rounded=0;entryX=0.638;entryY=0.967;entryDx=0;entryDy=0;entryPerimeter=0;" edge="1" parent="1" source="IhdsTtRUpXvqoFYhtNvG-1" target="IhdsTtRUpXvqoFYhtNvG-7">
          <mxGeometry width="50" height="50" relative="1" as="geometry">
            <mxPoint y="332" as="sourcePoint" />
            <mxPoint x="50" y="282" as="targetPoint" />
          </mxGeometry>
        </mxCell>
        <mxCell id="IhdsTtRUpXvqoFYhtNvG-25" value="" style="endArrow=none;html=1;rounded=0;exitX=0;exitY=0.25;exitDx=0;exitDy=0;entryX=1;entryY=0.5;entryDx=0;entryDy=0;" edge="1" parent="1" source="IhdsTtRUpXvqoFYhtNvG-1" target="IhdsTtRUpXvqoFYhtNvG-21">
          <mxGeometry width="50" height="50" relative="1" as="geometry">
            <mxPoint x="25" y="372" as="sourcePoint" />
            <mxPoint x="-15" y="326" as="targetPoint" />
          </mxGeometry>
        </mxCell>
        <mxCell id="IhdsTtRUpXvqoFYhtNvG-26" value="" style="endArrow=none;html=1;rounded=0;entryX=1;entryY=0.5;entryDx=0;entryDy=0;exitX=0;exitY=0.5;exitDx=0;exitDy=0;" edge="1" parent="1" source="IhdsTtRUpXvqoFYhtNvG-1" target="IhdsTtRUpXvqoFYhtNvG-20">
          <mxGeometry width="50" height="50" relative="1" as="geometry">
            <mxPoint x="50" y="340" as="sourcePoint" />
            <mxPoint x="-35" y="382" as="targetPoint" />
          </mxGeometry>
        </mxCell>
        <mxCell id="IhdsTtRUpXvqoFYhtNvG-27" value="" style="endArrow=none;html=1;rounded=0;entryX=1;entryY=0.5;entryDx=0;entryDy=0;exitX=0;exitY=0.75;exitDx=0;exitDy=0;" edge="1" parent="1" source="IhdsTtRUpXvqoFYhtNvG-1" target="IhdsTtRUpXvqoFYhtNvG-19">
          <mxGeometry width="50" height="50" relative="1" as="geometry">
            <mxPoint x="50" y="360" as="sourcePoint" />
            <mxPoint x="-30" y="392" as="targetPoint" />
          </mxGeometry>
        </mxCell>
        <mxCell id="IhdsTtRUpXvqoFYhtNvG-28" value="" style="endArrow=none;html=1;rounded=0;exitX=0.25;exitY=1;exitDx=0;exitDy=0;entryX=0.5;entryY=0;entryDx=0;entryDy=0;" edge="1" parent="1" source="IhdsTtRUpXvqoFYhtNvG-1" target="IhdsTtRUpXvqoFYhtNvG-22">
          <mxGeometry width="50" height="50" relative="1" as="geometry">
            <mxPoint x="72" y="382" as="sourcePoint" />
            <mxPoint x="-5" y="462" as="targetPoint" />
          </mxGeometry>
        </mxCell>
        <mxCell id="IhdsTtRUpXvqoFYhtNvG-45" style="edgeStyle=orthogonalEdgeStyle;rounded=0;orthogonalLoop=1;jettySize=auto;html=1;exitX=1;exitY=0.5;exitDx=0;exitDy=0;endArrow=none;endFill=0;" edge="1" parent="1" source="IhdsTtRUpXvqoFYhtNvG-30" target="IhdsTtRUpXvqoFYhtNvG-2">
          <mxGeometry relative="1" as="geometry" />
        </mxCell>
        <mxCell id="IhdsTtRUpXvqoFYhtNvG-30" value="Attended" style="rhombus;whiteSpace=wrap;html=1;" vertex="1" parent="1">
          <mxGeometry x="260" y="112" width="90" height="65" as="geometry" />
        </mxCell>
        <mxCell id="IhdsTtRUpXvqoFYhtNvG-33" value="&lt;u&gt;HighSchoolName&lt;/u&gt;" style="ellipse;whiteSpace=wrap;html=1;" vertex="1" parent="1">
          <mxGeometry x="300" y="-10" width="90" height="40" as="geometry" />
        </mxCell>
        <mxCell id="IhdsTtRUpXvqoFYhtNvG-34" value="Province" style="ellipse;whiteSpace=wrap;html=1;" vertex="1" parent="1">
          <mxGeometry x="425" y="-30" width="90" height="40" as="geometry" />
        </mxCell>
        <mxCell id="IhdsTtRUpXvqoFYhtNvG-35" value="Region" style="ellipse;whiteSpace=wrap;html=1;" vertex="1" parent="1">
          <mxGeometry x="550" y="-20" width="90" height="40" as="geometry" />
        </mxCell>
        <mxCell id="IhdsTtRUpXvqoFYhtNvG-36" value="Size" style="ellipse;whiteSpace=wrap;html=1;" vertex="1" parent="1">
          <mxGeometry x="630" y="40" width="90" height="40" as="geometry" />
        </mxCell>
        <mxCell id="IhdsTtRUpXvqoFYhtNvG-38" value="Type" style="ellipse;whiteSpace=wrap;html=1;" vertex="1" parent="1">
          <mxGeometry x="640" y="112" width="90" height="40" as="geometry" />
        </mxCell>
        <mxCell id="IhdsTtRUpXvqoFYhtNvG-39" value="" style="endArrow=none;html=1;rounded=0;entryX=0.652;entryY=1.05;entryDx=0;entryDy=0;entryPerimeter=0;exitX=0.061;exitY=-0.011;exitDx=0;exitDy=0;exitPerimeter=0;" edge="1" parent="1" source="IhdsTtRUpXvqoFYhtNvG-2" target="IhdsTtRUpXvqoFYhtNvG-33">
          <mxGeometry width="50" height="50" relative="1" as="geometry">
            <mxPoint x="425" y="83" as="sourcePoint" />
            <mxPoint x="365" y="37" as="targetPoint" />
          </mxGeometry>
        </mxCell>
        <mxCell id="IhdsTtRUpXvqoFYhtNvG-40" value="" style="endArrow=none;html=1;rounded=0;exitX=0.25;exitY=0;exitDx=0;exitDy=0;" edge="1" parent="1" source="IhdsTtRUpXvqoFYhtNvG-2" target="IhdsTtRUpXvqoFYhtNvG-34">
          <mxGeometry width="50" height="50" relative="1" as="geometry">
            <mxPoint x="437" y="119" as="sourcePoint" />
            <mxPoint x="369" y="42" as="targetPoint" />
          </mxGeometry>
        </mxCell>
        <mxCell id="IhdsTtRUpXvqoFYhtNvG-41" value="" style="endArrow=none;html=1;rounded=0;exitX=0.5;exitY=0;exitDx=0;exitDy=0;entryX=0;entryY=1;entryDx=0;entryDy=0;" edge="1" parent="1" source="IhdsTtRUpXvqoFYhtNvG-2" target="IhdsTtRUpXvqoFYhtNvG-35">
          <mxGeometry width="50" height="50" relative="1" as="geometry">
            <mxPoint x="460" y="120" as="sourcePoint" />
            <mxPoint x="477" y="20" as="targetPoint" />
          </mxGeometry>
        </mxCell>
        <mxCell id="IhdsTtRUpXvqoFYhtNvG-42" value="" style="endArrow=none;html=1;rounded=0;entryX=0;entryY=0.5;entryDx=0;entryDy=0;exitX=0.75;exitY=0;exitDx=0;exitDy=0;" edge="1" parent="1" source="IhdsTtRUpXvqoFYhtNvG-2" target="IhdsTtRUpXvqoFYhtNvG-36">
          <mxGeometry width="50" height="50" relative="1" as="geometry">
            <mxPoint x="510" y="110" as="sourcePoint" />
            <mxPoint x="573" y="24" as="targetPoint" />
          </mxGeometry>
        </mxCell>
        <mxCell id="IhdsTtRUpXvqoFYhtNvG-43" value="" style="endArrow=none;html=1;rounded=0;entryX=0;entryY=0.5;entryDx=0;entryDy=0;exitX=1;exitY=0.25;exitDx=0;exitDy=0;" edge="1" parent="1" source="IhdsTtRUpXvqoFYhtNvG-2" target="IhdsTtRUpXvqoFYhtNvG-38">
          <mxGeometry width="50" height="50" relative="1" as="geometry">
            <mxPoint x="520" y="120" as="sourcePoint" />
            <mxPoint x="640" y="70" as="targetPoint" />
          </mxGeometry>
        </mxCell>
        <mxCell id="IhdsTtRUpXvqoFYhtNvG-47" value="ObtainSY" style="rhombus;whiteSpace=wrap;html=1;" vertex="1" parent="1">
          <mxGeometry x="255" y="530.5" width="90" height="65" as="geometry" />
        </mxCell>
        <mxCell id="IhdsTtRUpXvqoFYhtNvG-48" value="ObtainHS" style="rhombus;whiteSpace=wrap;html=1;" vertex="1" parent="1">
          <mxGeometry x="260" y="247" width="90" height="65" as="geometry" />
        </mxCell>
        <mxCell id="IhdsTtRUpXvqoFYhtNvG-49" value="ObtainFY" style="rhombus;whiteSpace=wrap;html=1;" vertex="1" parent="1">
          <mxGeometry x="255" y="412" width="90" height="65" as="geometry" />
        </mxCell>
        <mxCell id="IhdsTtRUpXvqoFYhtNvG-51" value="" style="shape=filledEdge;curved=0;rounded=0;fixDash=1;endArrow=none;strokeWidth=10;fillColor=#ffffff;edgeStyle=orthogonalEdgeStyle;html=1;exitX=0.5;exitY=0;exitDx=0;exitDy=0;entryX=0;entryY=0.5;entryDx=0;entryDy=0;" edge="1" parent="1" source="IhdsTtRUpXvqoFYhtNvG-1" target="IhdsTtRUpXvqoFYhtNvG-30">
          <mxGeometry width="60" height="40" relative="1" as="geometry">
            <mxPoint x="-40" y="100" as="sourcePoint" />
            <mxPoint x="20" y="60" as="targetPoint" />
          </mxGeometry>
        </mxCell>
        <mxCell id="IhdsTtRUpXvqoFYhtNvG-55" value="" style="shape=filledEdge;curved=0;rounded=0;fixDash=1;endArrow=none;strokeWidth=10;fillColor=#ffffff;edgeStyle=orthogonalEdgeStyle;html=1;exitX=1;exitY=0.5;exitDx=0;exitDy=0;entryX=0;entryY=0.5;entryDx=0;entryDy=0;" edge="1" parent="1" source="IhdsTtRUpXvqoFYhtNvG-48" target="IhdsTtRUpXvqoFYhtNvG-3">
          <mxGeometry width="60" height="40" relative="1" as="geometry">
            <mxPoint x="125" y="322" as="sourcePoint" />
            <mxPoint x="270" y="155" as="targetPoint" />
          </mxGeometry>
        </mxCell>
        <mxCell id="IhdsTtRUpXvqoFYhtNvG-58" style="edgeStyle=orthogonalEdgeStyle;rounded=0;orthogonalLoop=1;jettySize=auto;html=1;exitX=0;exitY=0.5;exitDx=0;exitDy=0;entryX=0.995;entryY=0.17;entryDx=0;entryDy=0;entryPerimeter=0;shape=flexArrow;endWidth=7.857142857142858;endSize=3;startSize=0;" edge="1" parent="1" source="IhdsTtRUpXvqoFYhtNvG-48" target="IhdsTtRUpXvqoFYhtNvG-1">
          <mxGeometry relative="1" as="geometry" />
        </mxCell>
        <mxCell id="IhdsTtRUpXvqoFYhtNvG-59" value="&lt;u&gt;IDNo&lt;/u&gt;" style="ellipse;whiteSpace=wrap;html=1;" vertex="1" parent="1">
          <mxGeometry x="470" y="192" width="90" height="40" as="geometry" />
        </mxCell>
        <mxCell id="IhdsTtRUpXvqoFYhtNvG-60" value="Module" style="ellipse;whiteSpace=wrap;html=1;" vertex="1" parent="1">
          <mxGeometry x="580" y="200" width="90" height="40" as="geometry" />
        </mxCell>
        <mxCell id="IhdsTtRUpXvqoFYhtNvG-61" value="Mark" style="ellipse;whiteSpace=wrap;html=1;" vertex="1" parent="1">
          <mxGeometry x="620" y="247" width="90" height="40" as="geometry" />
        </mxCell>
        <mxCell id="IhdsTtRUpXvqoFYhtNvG-62" value="Status" style="ellipse;whiteSpace=wrap;html=1;" vertex="1" parent="1">
          <mxGeometry x="610" y="300" width="90" height="40" as="geometry" />
        </mxCell>
        <mxCell id="IhdsTtRUpXvqoFYhtNvG-65" value="" style="endArrow=none;html=1;rounded=0;entryX=0;entryY=1;entryDx=0;entryDy=0;exitX=0.5;exitY=0;exitDx=0;exitDy=0;" edge="1" parent="1" source="IhdsTtRUpXvqoFYhtNvG-3" target="IhdsTtRUpXvqoFYhtNvG-59">
          <mxGeometry width="50" height="50" relative="1" as="geometry">
            <mxPoint x="470" y="217" as="sourcePoint" />
            <mxPoint x="570" y="220" as="targetPoint" />
          </mxGeometry>
        </mxCell>
        <mxCell id="IhdsTtRUpXvqoFYhtNvG-67" value="" style="endArrow=none;html=1;rounded=0;entryX=0;entryY=0.5;entryDx=0;entryDy=0;exitX=1;exitY=0.25;exitDx=0;exitDy=0;" edge="1" parent="1" source="IhdsTtRUpXvqoFYhtNvG-3" target="IhdsTtRUpXvqoFYhtNvG-60">
          <mxGeometry width="50" height="50" relative="1" as="geometry">
            <mxPoint x="490" y="260" as="sourcePoint" />
            <mxPoint x="523" y="236" as="targetPoint" />
          </mxGeometry>
        </mxCell>
        <mxCell id="IhdsTtRUpXvqoFYhtNvG-68" value="" style="endArrow=none;html=1;rounded=0;exitX=1;exitY=0.5;exitDx=0;exitDy=0;" edge="1" parent="1" source="IhdsTtRUpXvqoFYhtNvG-3" target="IhdsTtRUpXvqoFYhtNvG-61">
          <mxGeometry width="50" height="50" relative="1" as="geometry">
            <mxPoint x="550" y="275" as="sourcePoint" />
            <mxPoint x="610" y="250" as="targetPoint" />
          </mxGeometry>
        </mxCell>
        <mxCell id="IhdsTtRUpXvqoFYhtNvG-70" value="" style="endArrow=none;html=1;rounded=0;exitX=1;exitY=0.75;exitDx=0;exitDy=0;entryX=0;entryY=0;entryDx=0;entryDy=0;" edge="1" parent="1" source="IhdsTtRUpXvqoFYhtNvG-3" target="IhdsTtRUpXvqoFYhtNvG-62">
          <mxGeometry width="50" height="50" relative="1" as="geometry">
            <mxPoint x="550" y="290" as="sourcePoint" />
            <mxPoint x="621" y="297" as="targetPoint" />
          </mxGeometry>
        </mxCell>
        <mxCell id="IhdsTtRUpXvqoFYhtNvG-71" value="&lt;u&gt;Year&lt;/u&gt;" style="ellipse;whiteSpace=wrap;html=1;" vertex="1" parent="1">
          <mxGeometry x="530" y="332" width="90" height="40" as="geometry" />
        </mxCell>
        <mxCell id="IhdsTtRUpXvqoFYhtNvG-72" value="" style="endArrow=none;html=1;rounded=0;exitX=0.75;exitY=1;exitDx=0;exitDy=0;entryX=0.5;entryY=0;entryDx=0;entryDy=0;" edge="1" parent="1" source="IhdsTtRUpXvqoFYhtNvG-3" target="IhdsTtRUpXvqoFYhtNvG-71">
          <mxGeometry width="50" height="50" relative="1" as="geometry">
            <mxPoint x="550" y="305" as="sourcePoint" />
            <mxPoint x="633" y="316" as="targetPoint" />
          </mxGeometry>
        </mxCell>
      </root>
    </mxGraphModel>
  </diagram>
</mxfile>
